<?xml version="1.0" encoding="UTF-8"?>
<svg width="25px" height="16px" viewBox="0 0 25 16" version="1.1" xmlns="http://www.w3.org/2000/svg" xmlns:xlink="http://www.w3.org/1999/xlink">
    <!-- Generator: Sketch 42 (36781) - http://www.bohemiancoding.com/sketch -->
    <title>noun_585509_cc</title>
    <desc>Created with Sketch.</desc>
    <defs></defs>
    <g id="Page-1" stroke="none" stroke-width="1" fill="none" fill-rule="evenodd">
        <g id="Tracks@2" transform="translate(-1197.000000, -327.000000)" stroke-width="0.5" stroke="#2979FE" fill="#2979FE" fill-rule="nonzero">
            <g id="noun_585509_cc" transform="translate(1198.000000, 328.000000)">
                <g id="Group">
                    <g id="Shape">
                        <path d="M11.5507367,0.110074314 C6.89975628,0.110074314 2.77300805,2.83753941 0.210966187,7.0432851 C0.0795277115,7.25585708 0.0795277115,7.54302929 0.210966187,7.75560127 C2.77300753,11.9614199 6.8997568,14.6983096 11.5507367,14.6983096 C16.2017164,14.6983096 20.3284656,11.9614199 22.8905072,7.75560127 C23.0219457,7.54302929 23.0219457,7.25585708 22.8905072,7.0432851 C20.3284654,2.83753941 16.2017169,0.110074314 11.5507367,0.110074314 Z M11.5507367,1.32576059 C15.7175372,1.32576059 19.4105572,3.70640559 21.8020192,7.40419196 C19.4104631,11.0995135 15.7158793,13.4826233 11.5507367,13.4826233 C7.3855939,13.4826233 3.6910101,11.0995135 1.29945419,7.40419196 C3.69091601,3.70640559 7.38393602,1.32576059 11.5507367,1.32576059 Z M11.5,3.14929 C9.1875106,3.14929 7.3,5.06146725 7.3,7.40419196 C7.3,9.74691059 9.1875106,11.6590939 11.5,11.6590939 C13.8124894,11.6590939 15.7,9.74691059 15.7,7.40419196 C15.7,5.06146725 13.8124894,3.14929 11.5,3.14929 Z M11.5,4.36497627 C13.1639611,4.36497627 14.5,5.71847275 14.5,7.40419196 C14.5,9.08989294 13.1639611,10.4434076 11.5,10.4434076 C9.8360389,10.4434076 8.5,9.08989294 8.5,7.40419196 C8.5,5.71847275 9.8360389,4.36497627 11.5,4.36497627 Z"></path>
                    </g>
                </g>
            </g>
        </g>
    </g>
</svg>